<svg width="155" height="24" viewBox="0 0 155 24" fill="none" xmlns="http://www.w3.org/2000/svg">
<path d="M9.24996 7.88361L3.98087 10.7184V13.7713H5.50305V11.5907L9.24996 9.58007L11.32 10.7184L7.73196 12.7355L9.19977 13.5533L14.519 10.7184L9.24996 7.88361Z" fill="#606062"/>
<path d="M5.50305 14.869H3.98087V17.7584L9.24996 20.657L14.519 17.763L13.0136 16.8316L9.24996 18.8607L5.50305 16.8316V14.869Z" fill="#606062"/>
<path d="M2.47543 13.7713H0.969971V8.93139L9.30015 4.39085L16.0245 8.03326V0.798337L17.53 0V13.7713H15.9743V9.72973L9.30015 6.08732L2.47543 9.82952V13.7713Z" fill="#81CAA8"/>
<path d="M2.47543 14.869H0.969971V19.5094L9.30015 24L17.53 19.5094V14.869H16.0245V18.6611L9.19979 22.3035L2.47543 18.6112V14.869Z" fill="#81CAA8"/>
<path d="M26.9115 18V6.4654H34.3182V8.24636H29.0087V11.0926H33.7357V12.8402H29.0087V16.219H34.7177V18H26.9115ZM38.9111 16.5519C39.4437 16.5519 39.8321 16.4909 40.0762 16.3688C40.3203 16.2357 40.4423 16.0138 40.4423 15.7031C40.4423 15.4146 40.3092 15.176 40.0429 14.9874C39.7877 14.7987 39.3605 14.5934 38.7613 14.3715C38.3951 14.2384 38.0566 14.0997 37.7459 13.9554C37.4463 13.8001 37.1856 13.6225 36.9637 13.4228C36.7417 13.223 36.5642 12.9845 36.431 12.7071C36.309 12.4186 36.2479 12.069 36.2479 11.6585C36.2479 10.8595 36.542 10.2326 37.1301 9.77764C37.7182 9.3116 38.5171 9.07858 39.5269 9.07858C40.0373 9.07858 40.5256 9.12851 40.9916 9.22838C41.4577 9.31715 41.8072 9.40592 42.0402 9.49469L41.674 11.1258C41.4521 11.026 41.1692 10.9372 40.8252 10.8595C40.4812 10.7708 40.0817 10.7264 39.6268 10.7264C39.2162 10.7264 38.8833 10.7985 38.6281 10.9428C38.3729 11.0759 38.2453 11.2867 38.2453 11.5752C38.2453 11.7195 38.2675 11.8471 38.3119 11.9581C38.3673 12.069 38.4561 12.1744 38.5782 12.2743C38.7002 12.3631 38.8611 12.4574 39.0609 12.5573C39.2606 12.646 39.5047 12.7404 39.7932 12.8402C40.2704 13.0178 40.6754 13.1953 41.0083 13.3728C41.3411 13.5393 41.613 13.7335 41.8238 13.9554C42.0458 14.1662 42.2067 14.4103 42.3065 14.6878C42.4064 14.9652 42.4563 15.2981 42.4563 15.6864C42.4563 16.5186 42.1456 17.1511 41.5242 17.5839C40.9139 18.0055 40.0373 18.2164 38.8944 18.2164C38.1288 18.2164 37.5129 18.1498 37.0469 18.0166C36.5808 17.8946 36.2535 17.7947 36.0649 17.717L36.4144 16.036C36.714 16.158 37.0691 16.2745 37.4796 16.3855C37.9013 16.4965 38.3784 16.5519 38.9111 16.5519ZM44.4042 6.99802L46.4182 6.66513V9.29496H49.5141V10.976H46.4182V14.5213C46.4182 15.2204 46.5292 15.7197 46.7511 16.0193C46.973 16.3189 47.3503 16.4687 47.8829 16.4687C48.2491 16.4687 48.5709 16.4299 48.8483 16.3522C49.1368 16.2745 49.3643 16.2024 49.5307 16.1358L49.8636 17.7337C49.6306 17.8336 49.3255 17.9334 48.9482 18.0333C48.5709 18.1443 48.1271 18.1997 47.6166 18.1997C46.9952 18.1997 46.4737 18.1165 46.052 17.9501C45.6415 17.7836 45.3141 17.5451 45.07 17.2344C44.8259 16.9126 44.6539 16.5297 44.554 16.0859C44.4542 15.6309 44.4042 15.115 44.4042 14.538V6.99802ZM54.69 16.5852C55.3114 16.5852 55.783 16.5519 56.1048 16.4854V14.255C55.9938 14.2217 55.8329 14.1884 55.6221 14.1551C55.4113 14.1218 55.1782 14.1052 54.923 14.1052C54.7011 14.1052 54.4736 14.1218 54.2406 14.1551C54.0187 14.1884 53.8134 14.2495 53.6247 14.3382C53.4472 14.427 53.303 14.5546 53.192 14.721C53.081 14.8764 53.0255 15.0761 53.0255 15.3202C53.0255 15.7974 53.1753 16.1303 53.4749 16.3189C53.7745 16.4965 54.1796 16.5852 54.69 16.5852ZM54.5235 9.07858C55.1893 9.07858 55.7497 9.1618 56.2046 9.32824C56.6596 9.49469 57.0202 9.72771 57.2865 10.0273C57.5639 10.3269 57.7581 10.6931 57.8691 11.1258C57.9911 11.5475 58.0522 12.0135 58.0522 12.524V17.8003C57.7415 17.8668 57.2699 17.9445 56.6374 18.0333C56.016 18.1332 55.3114 18.1831 54.5235 18.1831C54.002 18.1831 53.5249 18.1332 53.0921 18.0333C52.6594 17.9334 52.2876 17.7725 51.9769 17.5506C51.6773 17.3287 51.4388 17.0402 51.2612 16.6851C51.0948 16.33 51.0116 15.8917 51.0116 15.3702C51.0116 14.8708 51.1059 14.4492 51.2945 14.1052C51.4943 13.7612 51.7606 13.4838 52.0935 13.273C52.4263 13.0511 52.8092 12.8957 53.2419 12.8069C53.6858 12.7071 54.1463 12.6571 54.6234 12.6571C54.8453 12.6571 55.0784 12.6738 55.3225 12.7071C55.5666 12.7293 55.8274 12.7736 56.1048 12.8402V12.5073C56.1048 12.2743 56.077 12.0524 56.0215 11.8416C55.9661 11.6307 55.8662 11.4476 55.7219 11.2923C55.5888 11.1258 55.4057 10.9982 55.1727 10.9095C54.9508 10.8207 54.6678 10.7763 54.3238 10.7763C53.8578 10.7763 53.4306 10.8096 53.0422 10.8762C52.6538 10.9428 52.3376 11.0204 52.0935 11.1092L51.8438 9.47804C52.099 9.38927 52.4707 9.3005 52.959 9.21173C53.4472 9.12296 53.9687 9.07858 54.5235 9.07858ZM65.645 11.1092C65.4786 11.0537 65.2456 10.9982 64.946 10.9428C64.6575 10.8762 64.319 10.8429 63.9307 10.8429C63.7087 10.8429 63.4702 10.8651 63.2149 10.9095C62.9708 10.9539 62.7988 10.9927 62.699 11.026V18H60.685V9.71107C61.0734 9.56681 61.556 9.43366 62.1331 9.3116C62.7212 9.17844 63.3703 9.11187 64.0805 9.11187C64.2136 9.11187 64.369 9.12296 64.5465 9.14516C64.724 9.15625 64.9016 9.17844 65.0791 9.21173C65.2567 9.23393 65.4287 9.26721 65.5951 9.3116C65.7615 9.34489 65.8947 9.37818 65.9946 9.41147L65.645 11.1092ZM69.1457 13.6225C69.1457 14.5102 69.3565 15.2093 69.7782 15.7197C70.1998 16.219 70.7824 16.4687 71.5258 16.4687C71.8476 16.4687 72.1195 16.4576 72.3414 16.4354C72.5744 16.4021 72.7631 16.3688 72.9073 16.3356V11.3422C72.7298 11.2202 72.4912 11.1092 72.1916 11.0093C71.9031 10.8984 71.5924 10.8429 71.2595 10.8429C70.5272 10.8429 69.989 11.0926 69.645 11.5919C69.3121 12.0912 69.1457 12.7681 69.1457 13.6225ZM74.9213 17.7337C74.5218 17.8557 74.017 17.9667 73.4067 18.0666C72.8075 18.1664 72.175 18.2164 71.5092 18.2164C70.8212 18.2164 70.2054 18.111 69.6617 17.9001C69.118 17.6893 68.6519 17.3897 68.2635 17.0013C67.8863 16.6019 67.5922 16.1247 67.3814 15.5699C67.1816 15.004 67.0818 14.3715 67.0818 13.6724C67.0818 12.9845 67.165 12.3631 67.3314 11.8083C67.509 11.2424 67.7642 10.7597 68.0971 10.3602C68.43 9.96073 68.835 9.65559 69.3121 9.44476C69.7893 9.22283 70.3385 9.11187 70.9599 9.11187C71.3816 9.11187 71.7533 9.1618 72.0751 9.26167C72.3969 9.36153 72.6743 9.4725 72.9073 9.59456V5.4168L74.9213 5.08391V17.7337ZM80.7086 16.5852C81.33 16.5852 81.8016 16.5519 82.1234 16.4854V14.255C82.0125 14.2217 81.8516 14.1884 81.6407 14.1551C81.4299 14.1218 81.1969 14.1052 80.9417 14.1052C80.7197 14.1052 80.4923 14.1218 80.2592 14.1551C80.0373 14.1884 79.832 14.2495 79.6434 14.3382C79.4659 14.427 79.3216 14.5546 79.2106 14.721C79.0997 14.8764 79.0442 15.0761 79.0442 15.3202C79.0442 15.7974 79.194 16.1303 79.4936 16.3189C79.7932 16.4965 80.1982 16.5852 80.7086 16.5852ZM80.5422 9.07858C81.208 9.07858 81.7683 9.1618 82.2233 9.32824C82.6782 9.49469 83.0389 9.72771 83.3052 10.0273C83.5826 10.3269 83.7768 10.6931 83.8877 11.1258C84.0098 11.5475 84.0708 12.0135 84.0708 12.524V17.8003C83.7601 17.8668 83.2885 17.9445 82.656 18.0333C82.0346 18.1332 81.33 18.1831 80.5422 18.1831C80.0207 18.1831 79.5435 18.1332 79.1108 18.0333C78.678 17.9334 78.3063 17.7725 77.9956 17.5506C77.696 17.3287 77.4574 17.0402 77.2799 16.6851C77.1134 16.33 77.0302 15.8917 77.0302 15.3702C77.0302 14.8708 77.1245 14.4492 77.3132 14.1052C77.5129 13.7612 77.7792 13.4838 78.1121 13.273C78.445 13.0511 78.8278 12.8957 79.2606 12.8069C79.7044 12.7071 80.1649 12.6571 80.6421 12.6571C80.864 12.6571 81.097 12.6738 81.3411 12.7071C81.5852 12.7293 81.846 12.7736 82.1234 12.8402V12.5073C82.1234 12.2743 82.0957 12.0524 82.0402 11.8416C81.9847 11.6307 81.8848 11.4476 81.7406 11.2923C81.6074 11.1258 81.4244 10.9982 81.1913 10.9095C80.9694 10.8207 80.6864 10.7763 80.3425 10.7763C79.8764 10.7763 79.4492 10.8096 79.0608 10.8762C78.6725 10.9428 78.3562 11.0204 78.1121 11.1092L77.8624 9.47804C78.1177 9.38927 78.4894 9.3005 78.9776 9.21173C79.4659 9.12296 79.9874 9.07858 80.5422 9.07858ZM86.7036 9.57791C87.092 9.46695 87.5969 9.36153 88.2183 9.26167C88.8397 9.1618 89.5276 9.11187 90.2822 9.11187C90.9923 9.11187 91.586 9.21173 92.0631 9.41147C92.5403 9.6001 92.9176 9.87196 93.195 10.227C93.4835 10.571 93.6832 10.9927 93.7942 11.492C93.9162 11.9803 93.9773 12.5184 93.9773 13.1065V18H91.9633V13.4228C91.9633 12.9567 91.93 12.5628 91.8634 12.241C91.8079 11.9081 91.7081 11.6418 91.5638 11.4421C91.4307 11.2313 91.242 11.0815 90.9979 10.9927C90.7649 10.8928 90.4764 10.8429 90.1324 10.8429C89.8772 10.8429 89.6109 10.8595 89.3335 10.8928C89.056 10.9261 88.8508 10.9539 88.7176 10.976V18H86.7036V9.57791ZM98.1876 13.6225C98.1876 14.5102 98.3985 15.2093 98.8201 15.7197C99.2418 16.219 99.8243 16.4687 100.568 16.4687C100.89 16.4687 101.161 16.4576 101.383 16.4354C101.616 16.4021 101.805 16.3688 101.949 16.3356V11.3422C101.772 11.2202 101.533 11.1092 101.234 11.0093C100.945 10.8984 100.634 10.8429 100.301 10.8429C99.5691 10.8429 99.031 11.0926 98.687 11.5919C98.3541 12.0912 98.1876 12.7681 98.1876 13.6225ZM103.963 17.7337C103.564 17.8557 103.059 17.9667 102.449 18.0666C101.849 18.1664 101.217 18.2164 100.551 18.2164C99.8632 18.2164 99.2473 18.111 98.7036 17.9001C98.1599 17.6893 97.6939 17.3897 97.3055 17.0013C96.9282 16.6019 96.6342 16.1247 96.4233 15.5699C96.2236 15.004 96.1237 14.3715 96.1237 13.6724C96.1237 12.9845 96.207 12.3631 96.3734 11.8083C96.5509 11.2424 96.8062 10.7597 97.139 10.3602C97.4719 9.96073 97.8769 9.65559 98.3541 9.44476C98.8312 9.22283 99.3805 9.11187 100.002 9.11187C100.424 9.11187 100.795 9.1618 101.117 9.26167C101.439 9.36153 101.716 9.4725 101.949 9.59456V5.4168L103.963 5.08391V17.7337ZM114.561 13.6392C114.561 14.3271 114.461 14.9541 114.261 15.52C114.062 16.0859 113.779 16.5686 113.412 16.968C113.046 17.3675 112.602 17.6782 112.081 17.9001C111.57 18.1221 111.004 18.233 110.383 18.233C109.762 18.233 109.196 18.1221 108.685 17.9001C108.175 17.6782 107.737 17.3675 107.37 16.968C107.004 16.5686 106.716 16.0859 106.505 15.52C106.305 14.9541 106.205 14.3271 106.205 13.6392C106.205 12.9512 106.305 12.3298 106.505 11.775C106.716 11.2091 107.004 10.7264 107.37 10.3269C107.748 9.92744 108.192 9.6223 108.702 9.41147C109.212 9.18954 109.773 9.07858 110.383 9.07858C110.993 9.07858 111.554 9.18954 112.064 9.41147C112.586 9.6223 113.03 9.92744 113.396 10.3269C113.762 10.7264 114.045 11.2091 114.245 11.775C114.455 12.3298 114.561 12.9512 114.561 13.6392ZM112.497 13.6392C112.497 12.7736 112.308 12.0912 111.931 11.5919C111.565 11.0815 111.049 10.8262 110.383 10.8262C109.717 10.8262 109.196 11.0815 108.819 11.5919C108.452 12.0912 108.269 12.7736 108.269 13.6392C108.269 14.5158 108.452 15.2093 108.819 15.7197C109.196 16.2301 109.717 16.4854 110.383 16.4854C111.049 16.4854 111.565 16.2301 111.931 15.7197C112.308 15.2093 112.497 14.5158 112.497 13.6392ZM118.999 16.269C119.121 16.2801 119.282 16.2912 119.482 16.3023C119.682 16.3023 119.953 16.3023 120.297 16.3023C121.707 16.3023 122.755 15.9472 123.443 15.237C124.142 14.5158 124.492 13.5115 124.492 12.2244C124.492 10.915 124.153 9.9108 123.477 9.21173C122.8 8.51267 121.751 8.16313 120.331 8.16313C119.709 8.16313 119.265 8.17978 118.999 8.21307V16.269ZM126.689 12.2244C126.689 13.223 126.534 14.0941 126.223 14.8376C125.912 15.5699 125.468 16.1858 124.891 16.6851C124.325 17.1733 123.637 17.5395 122.827 17.7836C122.028 18.0166 121.141 18.1332 120.164 18.1332C119.698 18.1332 119.171 18.111 118.583 18.0666C117.995 18.0333 117.435 17.9556 116.902 17.8336V6.63184C117.435 6.50979 118.001 6.43211 118.6 6.39882C119.199 6.36553 119.732 6.34889 120.198 6.34889C121.163 6.34889 122.045 6.4654 122.844 6.69842C123.643 6.92035 124.325 7.27543 124.891 7.76367C125.468 8.24081 125.912 8.8511 126.223 9.59456C126.534 10.3269 126.689 11.2035 126.689 12.2244ZM128.563 13.6891C128.563 12.9234 128.674 12.2521 128.896 11.6751C129.129 11.0981 129.434 10.621 129.811 10.2437C130.188 9.85532 130.621 9.56681 131.109 9.37818C131.598 9.17844 132.097 9.07858 132.607 9.07858C133.806 9.07858 134.738 9.4503 135.404 10.1938C136.081 10.9372 136.419 12.0468 136.419 13.5226C136.419 13.6336 136.413 13.7612 136.402 13.9055C136.402 14.0386 136.397 14.1607 136.386 14.2716H130.643C130.699 14.9707 130.943 15.5144 131.376 15.9028C131.82 16.2801 132.458 16.4687 133.29 16.4687C133.778 16.4687 134.222 16.4243 134.621 16.3356C135.032 16.2468 135.354 16.1525 135.587 16.0526L135.853 17.7004C135.742 17.7559 135.587 17.8169 135.387 17.8835C135.198 17.939 134.977 17.9889 134.721 18.0333C134.477 18.0888 134.211 18.1332 133.922 18.1664C133.634 18.1997 133.34 18.2164 133.04 18.2164C132.275 18.2164 131.609 18.1054 131.043 17.8835C130.477 17.6505 130.011 17.3342 129.645 16.9348C129.279 16.5242 129.007 16.0471 128.829 15.5033C128.652 14.9485 128.563 14.3438 128.563 13.6891ZM134.405 12.7903C134.405 12.5129 134.366 12.2521 134.289 12.008C134.211 11.7528 134.094 11.5364 133.939 11.3589C133.795 11.1702 133.612 11.026 133.39 10.9261C133.179 10.8151 132.924 10.7597 132.624 10.7597C132.313 10.7597 132.042 10.8207 131.809 10.9428C131.575 11.0537 131.376 11.2035 131.209 11.3922C131.054 11.5808 130.932 11.7972 130.843 12.0413C130.754 12.2854 130.693 12.5351 130.66 12.7903H134.405ZM140.951 18C140.396 16.8571 139.825 15.5477 139.237 14.0719C138.66 12.585 138.133 10.9927 137.656 9.29496H139.803C139.925 9.78319 140.063 10.3103 140.219 10.8762C140.385 11.431 140.557 11.9914 140.735 12.5573C140.923 13.1121 141.112 13.6558 141.301 14.1884C141.5 14.7099 141.683 15.1815 141.85 15.6032C142.016 15.1815 142.194 14.7099 142.383 14.1884C142.571 13.6558 142.754 13.1121 142.932 12.5573C143.12 11.9914 143.298 11.431 143.464 10.8762C143.631 10.3103 143.775 9.78319 143.897 9.29496H145.978C145.501 10.9927 144.968 12.585 144.38 14.0719C143.803 15.5477 143.237 16.8571 142.682 18H140.951ZM149.829 16.5519C150.361 16.5519 150.75 16.4909 150.994 16.3688C151.238 16.2357 151.36 16.0138 151.36 15.7031C151.36 15.4146 151.227 15.176 150.961 14.9874C150.705 14.7987 150.278 14.5934 149.679 14.3715C149.313 14.2384 148.974 14.0997 148.664 13.9554C148.364 13.8001 148.103 13.6225 147.881 13.4228C147.659 13.223 147.482 12.9845 147.349 12.7071C147.227 12.4186 147.166 12.069 147.166 11.6585C147.166 10.8595 147.46 10.2326 148.048 9.77764C148.636 9.3116 149.435 9.07858 150.445 9.07858C150.955 9.07858 151.443 9.12851 151.909 9.22838C152.375 9.31715 152.725 9.40592 152.958 9.49469L152.592 11.1258C152.37 11.026 152.087 10.9372 151.743 10.8595C151.399 10.7708 150.999 10.7264 150.544 10.7264C150.134 10.7264 149.801 10.7985 149.546 10.9428C149.291 11.0759 149.163 11.2867 149.163 11.5752C149.163 11.7195 149.185 11.8471 149.23 11.9581C149.285 12.069 149.374 12.1744 149.496 12.2743C149.618 12.3631 149.779 12.4574 149.979 12.5573C150.178 12.646 150.422 12.7404 150.711 12.8402C151.188 13.0178 151.593 13.1953 151.926 13.3728C152.259 13.5393 152.531 13.7335 152.741 13.9554C152.963 14.1662 153.124 14.4103 153.224 14.6878C153.324 14.9652 153.374 15.2981 153.374 15.6864C153.374 16.5186 153.063 17.1511 152.442 17.5839C151.832 18.0055 150.955 18.2164 149.812 18.2164C149.046 18.2164 148.431 18.1498 147.965 18.0166C147.498 17.8946 147.171 17.7947 146.983 17.717L147.332 16.036C147.632 16.158 147.987 16.2745 148.397 16.3855C148.819 16.4965 149.296 16.5519 149.829 16.5519Z" fill="#81CAA8"/>
</svg>
